<svg width="21" height="16" viewBox="0 0 21 16" fill="none" xmlns="http://www.w3.org/2000/svg">
<path d="M17.0458 2.00802C15.8147 1.43411 14.4818 1.01757 13.0933 0.776898C13.0811 0.776509 13.069 0.778793 13.0578 0.783591C13.0466 0.788389 13.0366 0.795584 13.0285 0.804668C12.8619 1.11013 12.6675 1.50817 12.5379 1.81363C11.0652 1.59147 9.56745 1.59147 8.09474 1.81363C7.96515 1.49891 7.77076 1.11013 7.59488 0.804668C7.58563 0.786155 7.55786 0.776898 7.53009 0.776898C6.1416 1.01757 4.81792 1.43411 3.57754 2.00802C3.56828 2.00802 3.55903 2.01728 3.54977 2.02653C1.03199 5.79395 0.33775 9.45954 0.680242 13.0881C0.680242 13.1066 0.689499 13.1251 0.708012 13.1344C2.37419 14.3563 3.97557 15.0968 5.55844 15.5874C5.58621 15.5966 5.61398 15.5874 5.62324 15.5689C5.9935 15.0597 6.32674 14.5229 6.61369 13.9582C6.6322 13.9212 6.61369 13.8842 6.57666 13.8749C6.04904 13.6713 5.54919 13.4306 5.05859 13.1529C5.02156 13.1344 5.02156 13.0788 5.04933 13.0511C5.15115 12.977 5.25298 12.8937 5.3548 12.8197C5.37331 12.8012 5.40108 12.8012 5.41959 12.8104C8.60385 14.2637 12.038 14.2637 15.1853 12.8104C15.2038 12.8012 15.2315 12.8012 15.25 12.8197C15.3519 12.903 15.4537 12.977 15.5555 13.0603C15.5925 13.0881 15.5925 13.1436 15.5463 13.1622C15.0649 13.4491 14.5558 13.6805 14.0282 13.8842C13.9912 13.8934 13.9819 13.9397 13.9912 13.9675C14.2874 14.5321 14.6206 15.069 14.9816 15.5781C15.0094 15.5874 15.0371 15.5966 15.0649 15.5874C16.657 15.0968 18.2584 14.3563 19.9246 13.1344C19.9431 13.1251 19.9524 13.1066 19.9524 13.0881C20.3597 8.89489 19.2766 5.25707 17.0828 2.02653C17.0736 2.01728 17.0643 2.00802 17.0458 2.00802ZM7.09503 10.8758C6.14161 10.8758 5.34554 9.99642 5.34554 8.9134C5.34554 7.83039 6.12309 6.95101 7.09503 6.95101C8.07622 6.95101 8.85377 7.83964 8.84452 8.9134C8.84452 9.99642 8.06697 10.8758 7.09503 10.8758ZM13.5468 10.8758C12.5934 10.8758 11.7974 9.99642 11.7974 8.9134C11.7974 7.83039 12.5749 6.95101 13.5468 6.95101C14.528 6.95101 15.3056 7.83964 15.2963 8.9134C15.2963 9.99642 14.528 10.8758 13.5468 10.8758Z" fill="#77be1d"/>
</svg>
