<svg width="23" height="14" viewBox="0 0 23 14" fill="none" xmlns="http://www.w3.org/2000/svg">
<path fill-rule="evenodd" clip-rule="evenodd" d="M21.7066 1.58016C21.8603 1.07475 21.7066 0.702637 20.9707 0.702637H18.5409C17.9225 0.702637 17.6374 1.02384 17.4828 1.37836C17.4828 1.37836 16.2471 4.33676 14.4967 6.25842C13.9302 6.81566 13.6728 6.99246 13.3637 6.99246C13.2091 6.99246 12.9768 6.81566 12.9768 6.30933V1.58016C12.9768 0.972928 12.8064 0.702637 12.2918 0.702637H8.47067C8.08467 0.702637 7.85233 0.984036 7.85233 1.25155C7.85233 1.82638 8.728 1.95968 8.81779 3.57772V7.09336C8.81779 7.86443 8.67616 8.0042 8.36699 8.0042C7.54316 8.0042 5.53912 5.03192 4.34965 1.63107C4.11916 0.969225 3.8859 0.702637 3.26478 0.702637H0.833089C0.138848 0.702637 0 1.02384 0 1.37836C0 2.00966 0.823833 5.14578 3.83684 9.29364C5.84551 12.1261 8.67338 13.6618 11.2495 13.6618C12.7944 13.6618 12.9851 13.3212 12.9851 12.7334V10.5923C12.9851 9.91012 13.1313 9.77405 13.621 9.77405C13.982 9.77405 14.5994 9.95178 16.0416 11.3171C17.6893 12.9361 17.9605 13.6618 18.888 13.6618H21.3178C22.0121 13.6618 22.3601 13.3212 22.1602 12.6473C21.9399 11.9771 21.1531 11.0042 20.1098 9.84996C19.5433 9.19274 18.6936 8.48461 18.4353 8.13009C18.0753 7.67559 18.178 7.47287 18.4353 7.06836C18.4353 7.06836 21.3974 2.97142 21.7057 1.58016H21.7066Z" fill="white" fill-opacity="0.15"/>
</svg>
